# xmcd CD database file
#
# Track frame offsets:
#	150
#	25400
#	45925
#	63200
#	84325
#	98862
#	111537
#	136925
#	154437
#	173350
#	189237
#	210050
#	228550
#
# Disc length: 3281 seconds
#
# Revision: 0
# Processed by: cddbd v1.5.1PL0 Copyright (c) Steve Scherf et al.
# Submitted via: CDex 1.51
#
DISCID=9b0ccf0d
DTITLE=都留教博 - ア・マン・メイド・ザ・ムーン
DYEAR=1900
DGENRE=New Age
TTITLE0=ムーンリット・ダンサー
TTITLE1=葡萄畑
TTITLE2=月をつくった男
TTITLE3=クローズ・ユア・アイズ
TTITLE4=雨告鳥
TTITLE5=ア・ワイズマンズ・ゲーム
TTITLE6=ウィンターズ・テール
TTITLE7=一人のワルツ
TTITLE8=レイプ・ブロッサム・フィー ルド
TTITLE9=嵐ヶ丘
TTITLE10=夕惑い
TTITLE11=待合室
TTITLE12=ザ・バトル・オブ・ミラーズ
EXTD=
EXTT0=
EXTT1=
EXTT2=
EXTT3=
EXTT4=
EXTT5=
EXTT6=
EXTT7=
EXTT8=
EXTT9=
EXTT10=
EXTT11=
EXTT12=
PLAYORDER=
